<svg aria-hidden="true" style="position: absolute; width: 0; height: 0; overflow: hidden;" version="1.1" 
    xmlns="http://www.w3.org/2000/svg" 
    xmlns:xlink="http://www.w3.org/1999/xlink">
    <defs>
        <symbol id="icon-play-icn-wht" viewBox="0 0 80 80">
            <path d="M40 6.66667C58.38 6.66667 73.3333 21.62 73.3333 40C73.3333 58.38 58.38 73.3333 40 73.3333C21.62 73.3333 6.66667 58.38 6.66667 40C6.66667 21.62 21.62 6.66667 40 6.66667ZM40 0C17.91 0 0 17.91 0 40C0 62.09 17.91 80 40 80C62.09 80 80 62.09 80 40C80 17.91 62.09 0 40 0ZM30 56.6667V23.3333L60 40.4867L30 56.6667Z"></path>
        </symbol>
        <symbol id="icon-pacman-icn-blk" viewBox="0 0 32 32">
            <path d="M30.148 5.588c-2.934-3.42-7.288-5.588-12.148-5.588-8.837 0-16 7.163-16 16s7.163 16 16 16c4.86 0 9.213-2.167 12.148-5.588l-10.148-10.412 10.148-10.412zM22 3.769c1.232 0 2.231 0.999 2.231 2.231s-0.999 2.231-2.231 2.231-2.231-0.999-2.231-2.231c0-1.232 0.999-2.231 2.231-2.231z"></path>
        </symbol>
        <symbol id="icon-thumb-icn-blk" viewBox="0 0 32 32">
            <path d="M27.273 20.028c0.519-0.612 0.727-1.224 0.727-1.836 0-0.714-0.416-1.224-0.623-1.632 0.312-0.714 0.416-1.938-0.623-2.855-0.831-0.714-2.182-1.020-4.156-0.918-1.351 0.102-2.494 0.306-2.494 0.306-0.208 0-0.519 0.102-0.831 0.102 0-0.306 0-1.020 0.623-2.753 0.727-2.040 0.727-3.467-0.104-4.487s-2.182-1.122-2.597-1.122c-0.416 0-0.727 0.102-1.039 0.408-0.623 0.612-0.623 1.734-0.519 2.244-0.727 1.632-2.597 5.711-4.156 6.833 0 0-0.104 0-0.104 0.102-0.519 0.408-0.831 0.918-1.039 1.326-0.312-0.102-0.623-0.204-1.039-0.204h-3.117c-1.143 0-2.182 0.918-2.182 1.938v7.546c0 1.122 0.935 1.938 2.182 1.938h3.117c0.416 0 0.831-0.102 1.247-0.306l1.247 0.102c0.208 0 3.429 0.408 6.857 0.306 0.623 0 1.143 0.102 1.766 0.102 0.935 0 1.766-0.102 2.39-0.204 1.558-0.306 2.597-0.918 3.221-1.836 0.416-0.714 0.416-1.326 0.312-1.836 1.039-0.816 1.247-1.734 1.143-2.447-0.104-0.204-0.104-0.612-0.208-0.816zM6.286 25.739c-0.416 0-0.727-0.306-0.727-0.714v-7.648c0-0.408 0.312-0.714 0.727-0.714h3.117c0.416 0 0.727 0.306 0.727 0.714v7.546c0 0.408-0.312 0.714-0.727 0.714l-3.117 0.102zM25.922 19.518c-0.208 0.204-0.208 0.51-0.104 0.714 0 0 0.208 0.306 0.208 0.816 0 0.612-0.312 1.122-0.935 1.632-0.208 0.204-0.312 0.408-0.208 0.714 0 0 0.208 0.612-0.104 1.224-0.312 0.51-1.143 0.918-2.286 1.224-0.935 0.204-2.182 0.204-3.74 0.102h-0.104c-3.325 0.102-6.649-0.306-6.649-0.306l-0.52-0.102c0-0.102 0-0.306 0-0.408v-7.648c0-0.204 0-0.408-0.104-0.612 0.104-0.306 0.312-1.020 0.935-1.632 2.286-1.632 4.571-7.24 4.675-7.546 0-0.102 0-0.204 0-0.306-0.104-0.51-0.104-1.122 0.104-1.326 0.312 0 1.039 0.102 1.455 0.612 0.519 0.612 0.519 1.836-0.104 3.365-0.831 2.447-0.831 3.773-0.208 4.283 0.312 0.306 0.831 0.306 1.143 0.204s0.623-0.102 0.935-0.204c0 0 0 0 0.104 0 1.558-0.306 4.364-0.51 5.403 0.306 0.831 0.714 0.208 1.632 0.208 1.734-0.208 0.306-0.104 0.612 0.104 0.816 0 0 0.52 0.51 0.52 1.122-0.104 0.306-0.312 0.816-0.727 1.224z"></path>
        </symbol>
        <symbol id="icon-mouse-icn-wht" viewBox="0 0 26 54">
            <path fill-rule="evenodd" clip-rule="evenodd" d="M13 54L4.9447 45.6776L7.2428 43.3033L13 49.2514L18.7572 43.3033L21.0553 45.6776L13 54Z"/>
            <path fill-rule="evenodd" clip-rule="evenodd" d="M22.75 26.8622V13.4311C22.75 7.86774 18.3848 3.35777 13 3.35777C7.61522 3.35777 3.25 7.86774 3.25 13.4311V26.8622C3.25 32.4255 7.61522 36.9355 13 36.9355C18.3848 36.9355 22.75 32.4255 22.75 26.8622ZM13 0C5.8203 0 0 6.0133 0 13.4311V26.8622C0 34.2799 5.8203 40.2932 13 40.2932C20.1797 40.2932 26 34.2799 26 26.8622V13.4311C26 6.0133 20.1797 0 13 0Z"/>
            <path d="M11.375 11.7522C11.375 10.825 12.1025 10.0733 13 10.0733C13.8975 10.0733 14.625 10.825 14.625 11.7522V15.11C14.625 16.0372 13.8975 16.7888 13 16.7888C12.1025 16.7888 11.375 16.0372 11.375 15.11V11.7522Z"/>
        </symbol>
    </defs>
</svg>
